<?xml version="1.0" encoding="utf-8"?>
<!-- Generator: Adobe Illustrator 23.0.1, SVG Export Plug-In . SVG Version: 6.00 Build 0)  -->
<svg version="1.1" id="Layer_1" xmlns="http://www.w3.org/2000/svg" xmlns:xlink="http://www.w3.org/1999/xlink" x="0px" y="0px"
	 viewBox="0 0 160 160" style="enable-background:new 0 0 160 160;" xml:space="preserve">
<style type="text/css">
	.st0{fill:#FFFFFF;}
	.st1{fill:#3ACC6C;}
</style>
<g>
	<circle class="st0" cx="81.3" cy="87.6" r="57.9"/>
	<path class="st1" d="M157.4,80c0,42.7-34.7,77.4-77.4,77.4S2.6,122.7,2.6,80S37.3,2.6,80,2.6S157.4,37.3,157.4,80L157.4,80z
		 M71.1,121l57.4-57.4c2-1.9,2-5.1,0-7.1c0,0,0,0,0,0l-7.1-7c-1.9-1.9-5.1-2-7,0c0,0,0,0,0,0L67.5,96.3L45.7,74.4
		c-2-1.9-5.1-1.9-7.1,0l-7.1,7.1c-1.9,2-1.9,5.1,0,7.1L64,121C65.9,123,69.1,123,71.1,121C71,121,71.1,121,71.1,121L71.1,121z"/>
</g>
</svg>
