<?xml version="1.0" encoding="utf-8"?>
<!-- Generator: Adobe Illustrator 23.0.1, SVG Export Plug-In . SVG Version: 6.00 Build 0)  -->
<svg version="1.1" id="Layer_1" xmlns="http://www.w3.org/2000/svg" xmlns:xlink="http://www.w3.org/1999/xlink" x="0px" y="0px"
	 viewBox="0 0 720 698" style="enable-background:new 0 0 720 698;" xml:space="preserve">
<style type="text/css">
	.st0{opacity:0.1;fill:#6C63FF;enable-background:new    ;}
	.st1{fill:#3A3768;}
	.st2{fill:#80B9D6;}
	.st3{fill:#E6E8EC;}
	.st4{fill:url(#SVGID_1_);}
	.st5{fill:url(#SVGID_2_);}
	.st6{fill:#FFBDC6;}
	.st7{opacity:0.1;enable-background:new    ;}
	.st8{fill:#474463;}
	.st9{fill:#F2F1F2;}
	.st10{fill:#FF748E;}
	.st11{opacity:0.1;}
	.st12{fill:#FFFFFF;}
	.st13{fill:#3ACC6C;}
</style>
<g>
	<ellipse class="st0" cx="392.9" cy="655.8" rx="325.2" ry="29"/>
	<path class="st1" d="M565.8,159.4h4.6c1.4,0,2.4,1.1,2.4,2.4V235c0,1.4-1.1,2.4-2.4,2.4h-4.6c-1.4,0-2.4-1.1-2.4-2.4v-73.2
		C563.3,160.5,564.4,159.4,565.8,159.4z"/>
	<path class="st1" d="M250.8,98.2h0.4c1.4,0,2.4,1.1,2.4,2.4v20.8c0,1.4-1.1,2.4-2.4,2.4h-0.4c-1.4,0-2.4-1.1-2.4-2.4v-20.8
		C248.3,99.3,249.4,98.2,250.8,98.2z"/>
	<path class="st1" d="M250.6,145.3h1.1c1.4,0,2.4,1.1,2.4,2.4v39.9c0,1.4-1.1,2.4-2.4,2.4h-1.1c-1.4,0-2.4-1.1-2.4-2.4v-39.9
		C248.2,146.4,249.2,145.3,250.6,145.3z"/>
	<path class="st1" d="M250.7,205.7h0.8c1.4,0,2.4,1.1,2.4,2.4v40.2c0,1.4-1.1,2.4-2.4,2.4h-0.8c-1.4,0-2.4-1.1-2.4-2.4v-40.2
		C248.2,206.8,249.3,205.7,250.7,205.7z"/>
	<path class="st1" d="M293.1,13.2h233.7c23,0,41.7,18.7,41.7,41.7v561c0,23-18.7,41.7-41.7,41.7H293.1c-23,0-41.7-18.7-41.7-41.7
		v-561C251.4,31.9,270,13.2,293.1,13.2z"/>
	<path class="st2" d="M523.7,29.9h-36.4v4.4c0,11.5-9.3,20.7-20.7,20.7c0,0,0,0,0,0H350.9c-11.5,0-20.7-9.3-20.7-20.7c0,0,0,0,0,0
		v-4.4h-34.1c-13.9,0-25.2,11.3-25.2,25.2v0v560.5c0,13.9,11.3,25.2,25.2,25.2h227.6c13.9,0,25.2-11.3,25.2-25.2V55.1
		C548.9,41.2,537.7,29.9,523.7,29.9C523.7,29.9,523.7,29.9,523.7,29.9z"/>
	<path class="st3" d="M383.5,32.4h36c2.3,0,4.1,1.9,4.1,4.1v0.7c0,2.3-1.9,4.1-4.1,4.1h-36c-2.3,0-4.1-1.9-4.1-4.1v-0.7
		C379.3,34.3,381.2,32.4,383.5,32.4z"/>
	<circle class="st3" cx="435.4" cy="36.9" r="5.1"/>
	
		<linearGradient id="SVGID_1_" gradientUnits="userSpaceOnUse" x1="273.4007" y1="342.8442" x2="273.4007" y2="343.1224" gradientTransform="matrix(1 0 0 -1 -95.23 668.18)">
		<stop  offset="0" style="stop-color:#808080;stop-opacity:0.25"/>
		<stop  offset="0.54" style="stop-color:#808080;stop-opacity:0.12"/>
		<stop  offset="1" style="stop-color:#808080;stop-opacity:0.1"/>
	</linearGradient>
	<path class="st4" d="M177.6,325.1c0.3,0.3,0.8,0.4,1.2,0.1C178.4,325.2,178,325.2,177.6,325.1z"/>
	
		<linearGradient id="SVGID_2_" gradientUnits="userSpaceOnUse" x1="256.8023" y1="195.4971" x2="256.8023" y2="619.8288" gradientTransform="matrix(1 0 0 -1 -95.23 668.18)">
		<stop  offset="0" style="stop-color:#808080;stop-opacity:0.25"/>
		<stop  offset="0.54" style="stop-color:#808080;stop-opacity:0.12"/>
		<stop  offset="1" style="stop-color:#808080;stop-opacity:0.1"/>
	</linearGradient>
	<path class="st5" d="M305.8,112.2c-2.3-0.7-5.5-1.7-9.4-3.1c4-5.3,7-11.3,8.7-17.7l-0.3,0.1c0.1-0.4,0.2-0.8,0.3-1.2
		c-7.4,3.1-15.7-2.1-20.9-8.8c-5.2-6.6-8.8-14.9-14.5-21c-2.4-2.4-5-4.7-7.7-6.7c-1.7-1.3-3.5-2.7-5.6-2.8c-3.3-0.1-6,3.2-9.2,4.2
		c-2.1,0.5-4.3,0.4-6.4-0.2c-8.3-1.9-16.3-5.5-24.8-6.4c-4.5-0.6-9.1,0-13.4,1.5c-4.3,1.6-6.2,4.9-9.6,7.5
		c-3.7,2.8-11.1,2.7-15.5,3.2c-5.3,0.6-10.6,0.8-16,0.7c-3.1-0.3-6.2-0.2-9.2,0.3c-6.4,1.4-11.5,6.5-16.2,11.4
		c-1.3,1.1-2.2,2.6-2.7,4.3c-0.1,0.5-0.1,0.9,0,1.4c0,1.3,0.2,2.6,0.6,3.7c1.4,4.4,3.5,8.6,6.1,12.5c1.9,2.8,4.2,5.5,5.3,8.8
		c0.5,1.6,0.8,3.4,0.8,5.1c-0.1,1.8-0.2,3.7-0.6,5.5c-0.8,5-2.2,9.9-4.1,14.5c-1,2.5-2.1,5-2.4,7.7c0,0.5,0,1.1,0,1.6
		c-0.3,8.4,8,14.4,9.6,22.8c0.1,0.7,0.2,1.4,0.2,2.1c-0.2,5.2-3.1,10.3-7.4,12.3c0.4,0.1,0.8,0.3,1.1,0.4c-0.4,0.2-0.8,0.4-1.1,0.6
		c0.8,0.3,1.6,0.6,2.4,0.8c-4.9,4.3-9,9.4-12.2,15.2c-14.4,27.3-112.5,80.9-112.5,80.9s0.6,0.3,1.5,0.8c-0.4,0.2-0.7,0.5-1.2,0.8
		c-8.5,5.7-28.4,22.5-10.4,43.6c0,0,14.1-22.5,23.9-32.1c0.4-0.4,0.9-0.8,1.3-1.2c0.4,0.7,0.6,1.5,0.4,2.3l64.5-36.8
		c0,0,22.9-16.3,29.3-20c2.2-1.3,7.8-4.8,14.5-6.3l-0.7,0.3c2.4-0.7,4.9-1,7.4-1.1c11.4,0.2,23.8,8.7,27.9,42.3
		c5.5,45,2.9,53.1,1.2,54.2c-0.2,0-0.4-0.1-0.6-0.1c0.1,0,0.1,0.1,0.2,0.1c-0.2,0-0.5-0.1-0.7-0.1c0.3,0.2,0.6,0.3,0.9,0.2
		c0.2,0.1,0.5,0,0.7-0.1l0,0l0,0c0.2,0,0.5,0,0.9,0c0,0.4-0.1,0.8-0.1,1.3c-0.1,0-0.5,0.2,0,0.3l0,0c-0.1,2.5-0.1,5.3,0,8.2
		c-5.7,0.3-11.4,0.7-16.3,1l0.4-2.4l0.2-1.1c4.4-0.4,8.5-1.6,9-5.2c1.1-7.9-9.6-12.1-18.7-12.6s-63.5,3.2-63.5,3.2
		s-8.2,10.7,17.7,14c0.8,0.4,1.6,0.9,2.4,1.3c10.1,5.9,23.9,16.6,30.5,22l0.9,0.7l-3,2.4c16,3.7,31.5,65.7,40,94
		c8.5,28.4,27.2,27.3,42.7,23.1c14.5-3.9,16.3-46.6,16.5-52c0-0.4,0-0.5,0-0.5l25.8,32.2l2,2.4c0.8,0.4,1.5,0.8,2.2,1.1
		c19.5,9.4,41.1-8.6,35-29.2c-6.2-20.8-15.8-51.4-22.2-64.4c-5.3-10.9-12.3-28.9-16.5-40.2c0.5-0.2,1.1-0.5,1.6-0.8
		c0,0-0.1-0.5-0.3-1.4l0.3-0.1c0,0-6.2-32.7-6.5-55.9c0-0.4,0-0.8,0-1.2c0-0.4,0-0.5,0-0.8c4.7-1.1,7.6-1.5,7.6-1.5l0.1-1l-0.5,0.1
		l2.6-30.1c0,0,9.5-20.5,2.2-29.1c-2.2-2.5-3.7-5.6-4.3-8.9c-1.2-7.9,0-21,17-31.9c26.1-16.8,36.3-30.5,36.3-30.5
		S321.8,116.9,305.8,112.2z M253.9,133v-13.9c4.8-0.2,9.8,0.3,14.7,0c2.4-0.2,4.8-0.6,7.1-1.2l1.2,0.8
		C269.7,124.3,262,129.1,253.9,133z M179.8,351.1c1.9,1.3,3.8,2.7,5.7,4.2c1.2,6.9,2.2,11.7,2.3,12
		C185.6,361.6,183,356.2,179.8,351.1z"/>
	<path class="st6" d="M221.7,342.3l-1.2,6.3l-0.9,4.8l-1.6,8.8l-15.7,11c0,0-1.4-1.2-3.7-3.1c-6.4-5.3-19.9-16-29.8-21.8
		c-2.5-1.6-5.3-2.9-8.2-3.8L221.7,342.3z"/>
	<path class="st7" d="M221.7,342.3l-1.2,6.3c-3.5,0.2-6.9,0-10.3-0.5l-36.5,0.5c-1.7-0.1-3.3-0.2-4.8-0.4c-2.5-1.6-5.3-2.9-8.2-3.8
		L221.7,342.3z"/>
	<path class="st8" d="M210.2,347c0,0,18.3,3.1,19.3-4.7s-9.4-12-18.3-12.5c-8.9-0.5-62.1,3.1-62.1,3.1s-9.4,12.5,24.5,14.6
		L210.2,347z"/>
	<path class="st7" d="M221.7,342.3l-1.2,6.3l-0.9,4.8l-1.6,8.8l-15.7,11c0,0-1.4-1.2-3.7-3.1c-6.4-5.3-19.9-16-29.8-21.8
		c-2.5-1.6-5.3-2.9-8.2-3.8L221.7,342.3z"/>
	<path class="st7" d="M221.7,342.3l-1.2,6.3c-3.5,0.2-6.9,0-10.3-0.5l-36.5,0.5c-1.7-0.1-3.3-0.2-4.8-0.4c-2.5-1.6-5.3-2.9-8.2-3.8
		L221.7,342.3z"/>
	<path class="st7" d="M210.2,346.9c0,0,18.3,3.1,19.3-4.7c1-7.8-9.4-12-18.3-12.5c-8.9-0.5-62.1,3.1-62.1,3.1s-9.4,12.5,24.5,14.6
		L210.2,346.9z"/>
	<rect x="154.6" y="89.6" class="st8" width="95.5" height="113.3"/>
	<rect x="154.6" y="90.1" class="st7" width="95.5" height="113.3"/>
	<path class="st6" d="M42.6,283.5c-1.6,0.4-3.6,1.9-5.8,4.1c-9.6,9.5-23.4,31.9-23.4,31.9c-17.6-21,1.9-37.6,10.2-43.3
		c2-1.4,3.4-2.1,3.4-2.1L42.6,283.5z"/>
	<path class="st6" d="M220.6,125.4c0,0,4.7,32.9,20.9,40.7s-20.9,22.5-20.9,22.5L170,169.7c0,0,28.7-9.4,23-37.1L220.6,125.4z"/>
	<path class="st6" d="M166.3,323.2l-1.1,6.2l-0.9,4.8l-1.6,8.8L147,354c0,0-1.4-1.2-3.7-3.1c-6.4-5.3-19.9-16-29.8-21.8
		c-2.5-1.6-5.3-2.9-8.2-3.8L166.3,323.2z"/>
	<path class="st7" d="M166.3,323.2l-1.1,6.2c-3.5,0.2-6.9,0-10.3-0.5l-36.5,0.5c-1.7-0.1-3.3-0.2-4.9-0.4c-2.5-1.6-5.3-2.9-8.2-3.8
		L166.3,323.2z"/>
	<path class="st8" d="M154.9,327.9c0,0,18.3,3.1,19.3-4.7c1-7.8-9.4-12-18.3-12.5c-8.9-0.5-62.1,3.1-62.1,3.1s-9.4,12.5,24.5,14.6
		L154.9,327.9z"/>
	<path class="st7" d="M164.3,334.3l-1.6,8.8L147,354c0,0-1.4-1.2-3.7-3.1l20.7-17L164.3,334.3z"/>
	<path class="st8" d="M267.7,453.8c-0.7-0.4-1.4-0.7-2.1-1.1l-1.9-2.4l-25.3-32c0,0,0,0.2,0,0.6c-0.2,5.3-2,47.7-16.2,51.7
		c-15.1,4.2-33.4,5.2-41.7-23c-8.3-28.2-23.5-89.8-39.2-93.4l23.2-19.1c0,0,15.4,18,21.7,35.2c-0.2-1.1-10.9-50.7-2.1-59.5h76.2
		c0,0,11.8,33.5,19.8,50.1c6.3,12.9,15.7,43.4,21.8,64C307.9,445.2,286.8,463.2,267.7,453.8z"/>
	<path class="st7" d="M265.5,320.1c-11.8,7-63.4,4.1-80.2,3l-4.6-0.3c-0.5,0,0.1-0.3,0.1-0.3l0.5-4.7l12.5-31.8l67.1-38.9
		c-1.4,4.1-1.8,10.4-1.7,17.5C259.5,287.6,265.5,320.1,265.5,320.1z"/>
	<path class="st9" d="M265.5,318.5c-11.8,7-63.4,4.1-80.2,3l-4.6-0.3l-0.8-0.1l0.8-0.2l4.1-1.1l8.9-35.5l67.1-38.9
		c-1.4,4.1-1.8,10.4-1.7,17.5C259.5,286,265.5,318.5,265.5,318.5z"/>
	<path class="st7" d="M259.1,263c-13.6,3.1-43.7,12.4-55.2,34.7c-7.7,14.8-14.2,21.2-18.7,23.9l-4.6-0.3c0-0.1,0.1-0.2,0.1-0.3
		l4.1-1.1l8.9-35.5l67.1-38.9C259.5,249.5,259,255.8,259.1,263z"/>
	<path class="st7" d="M27,274.1l15.7,9.4c-1.6,0.4-3.6,1.9-5.8,4.1c-1.3-3.8-9.5-9.1-13.2-11.4C25.6,274.9,27,274.1,27,274.1z"/>
	<path class="st7" d="M177.9,321.8c-0.4,0.2-0.8,0.1-1.1-0.1C177.2,321.7,177.5,321.8,177.9,321.8z"/>
	<path class="st10" d="M213.3,164c0,0-14.1,1.6-24-8.9c0,0-41.7,12-55.9,39.2S23.3,274.7,23.3,274.7s16.7,9.4,15.1,14.1l63.2-36.5
		c0,0,22.5-16.2,28.7-19.8c6.2-3.7,40.7-26.1,48,35s0,53.8,0,53.8s10.4,3.7,25.6-25.6s62.1-36,62.1-36l2.6-30.8
		c0,0,9.3-20.4,2.1-28.9c-2.2-2.5-3.6-5.6-4.2-8.8c-1.2-7.8,0-20.9,16.6-31.7c25.6-16.7,35.5-30.3,35.5-30.3s0.5-9.9-15.1-14.6
		s-79.3-30.3-79.3-30.3l-2.1,8.9l50.2,35.5c0,0-25.1,20.3-44.9,19.8C227.4,148.3,231.1,163.5,213.3,164z"/>
	<path class="st7" d="M223,139.7c-1.2-4.2-2.2-8.4-2.9-12.8l-27.7,7.3c1.2,5.3,1,10.8-0.6,16C203.4,153.3,215.7,149.1,223,139.7
		L223,139.7z"/>
	<circle class="st6" cx="200" cy="119.9" r="29.8"/>
	<path class="st7" d="M215.8,52.2c8.3,0.9,16.1,4.5,24.2,6.4c2,0.6,4.2,0.7,6.3,0.2c3.2-1,5.7-4.3,9-4.2c2,0,3.8,1.4,5.5,2.7
		c2.7,2,5.2,4.3,7.5,6.7c5.6,6.1,9.1,14.3,14.2,20.9s13.2,11.8,20.4,8.7c-4.9,19.3-21.1,33.9-38.6,35.1c-7,0.5-14.1-1-20.9,1.1
		c-1.7,0.7-3.5,1.1-5.3,1.3c-3.9,0-7-3.6-9.5-7.1c-5.7-8.2-10.2-17.5-16.6-24.9c-2.1-2.5-4.6-4.8-7.6-5.3s-5.7,1-8.4,2.4
		c-4.4,2.3-8.9,4.6-12.3,8.6s-5.6,9.7-4.2,15c0.8,2.8,2.5,5.4,2.5,8.4c0.1,4.7-4.1,8.2-5,12.8c-0.2,1.9-0.3,3.9-0.2,5.8
		c-0.4,6.3-4.5,11.5-8.8,15.5c-1.7,1.6-3.6,3.2-4,5.6c-0.3,1.6,0,3.4-0.2,5c-0.6,4.1-4.7,6.2-8.4,6.7c-4.2,0.6-8.6,0.1-12.5-1.5
		c5.1-2.4,8.2-9.2,7-15.3c-1.6-8.5-10.1-14.5-9.4-23.2c0.4-2.6,1.2-5.2,2.4-7.6c1.9-4.7,3.2-9.5,4-14.4c0.6-3.8,1-7.9-0.2-11.5
		c-1.1-3.3-3.3-6-5.2-8.8c-2.6-3.8-4.6-8-6-12.3c-0.5-1.3-0.7-2.7-0.6-4.1c0.4-1.7,1.3-3.2,2.6-4.3c4.7-4.9,9.6-10,15.9-11.4
		c3-0.5,6-0.6,9-0.4c5.2,0.2,10.5-0.1,15.7-0.7c4.3-0.5,11.5-0.4,15.1-3.2c3.4-2.6,5.3-5.8,9.4-7.5
		C206.8,52.1,211.4,51.6,215.8,52.2z"/>
	<path class="st7" d="M232.4,359.5c0,0,17.2,33.9,12,44.4"/>
	<path class="st7" d="M263.6,450.2l-25.2-32c0,0,0,0.2,0,0.6c0,0-1.5-10.4,3.3-6.9c10.5,7.6,27.4,20.1,27.7,22.3
		C269.8,436.3,266,444.9,263.6,450.2z"/>
	<g class="st11">
		<path d="M227.9,148.3c0,0,2.1,8.8-4.7,13.2c10.6-1.8,11.1-10.1,10.7-13.6C231.9,148.2,229.9,148.4,227.9,148.3z"/>
		<path d="M29.6,272.6c0,0,96-53.2,110.2-80.4c10.1-19.5,34.5-31.2,47.4-36.2c-9.4,3.2-41.2,15.3-53.2,38.3
			c-14.1,27.1-110.2,80.4-110.2,80.4L29.6,272.6z"/>
		<path d="M246.6,144.2c16.3-5.1,32-17.8,32-17.8l-50.2-35.5l1.1-4.9l-4.8-1.9l-2.1,8.9l50.1,35.5
			C264.8,134.8,256,140.1,246.6,144.2z"/>
		<path d="M246.9,264.5c6.4-2.2,13-3.8,19.6-5l0.1-1C259.9,260,253.3,262,246.9,264.5z"/>
		<path d="M186.2,319.2h-0.5c-0.4,0.2-0.8,0.1-1.1-0.1c0.3,0.1,0.7,0.2,1.1,0.1c1.7-1,4.3-8.8-1.1-53.9
			c-5.8-48.1-28.4-44.4-40.8-38.8c12.7-3.5,30.1-0.5,35,40.9c5.4,45.1,2.8,52.9,1.1,53.9C182.2,321.2,184.4,320.5,186.2,319.2z"/>
		<path d="M180,321.3c-0.4,0-0.7,0-1.1-0.1C179.2,321.4,179.6,321.5,180,321.3z"/>
	</g>
	<path class="st8" d="M215.8,51.2c8.3,0.9,16.1,4.5,24.2,6.4c2,0.6,4.2,0.7,6.3,0.2c3.2-1,5.7-4.3,9-4.2c2,0.1,3.8,1.4,5.5,2.7
		c2.7,2,5.2,4.3,7.5,6.7c5.6,6.1,9.1,14.3,14.2,20.9c5.1,6.6,13.2,11.8,20.4,8.7c-4.9,19.3-21.1,33.9-38.6,35.1
		c-7,0.5-14.1-1-20.9,1.1c-1.7,0.7-3.5,1.1-5.3,1.3c-3.9,0-7-3.6-9.5-7.1c-5.7-8.2-10.2-17.4-16.6-24.9c-2.1-2.5-4.6-4.8-7.6-5.3
		c-3-0.4-5.7,1-8.4,2.4c-4.4,2.3-8.9,4.6-12.3,8.6s-5.6,9.7-4.2,15c0.8,2.8,2.5,5.4,2.5,8.4c0.1,4.7-4.1,8.2-5,12.8
		c-0.2,1.9-0.3,3.9-0.2,5.8c-0.4,6.3-4.5,11.5-8.8,15.5c-1.7,1.5-3.6,3.2-4,5.6c-0.3,1.6,0,3.4-0.2,5c-0.6,4.1-4.7,6.2-8.4,6.7
		c-4.2,0.6-8.6,0.1-12.5-1.5c5.1-2.4,8.2-9.2,7-15.3c-1.6-8.5-10.1-14.6-9.4-23.2c0.4-2.6,1.2-5.2,2.4-7.6c1.9-4.7,3.2-9.5,4-14.5
		c0.6-3.8,1-7.9-0.2-11.5c-1.1-3.3-3.3-6-5.2-8.8c-2.6-3.8-4.6-8-6-12.3c-0.5-1.3-0.7-2.7-0.6-4.1c0.4-1.6,1.3-3.1,2.6-4.2
		c4.7-4.9,9.6-10,15.9-11.4c3-0.5,6-0.6,9-0.3c5.2,0.2,10.5-0.1,15.7-0.7c4.3-0.5,11.5-0.4,15.1-3.2c3.4-2.6,5.3-5.8,9.4-7.5
		C206.8,51.1,211.4,50.6,215.8,51.2z"/>
	<circle class="st12" cx="411.8" cy="343.3" r="60"/>
	<path class="st13" d="M490.6,335.4c0,44.3-35.9,80.2-80.2,80.2s-80.2-35.9-80.2-80.2s35.9-80.2,80.2-80.2S490.6,291.1,490.6,335.4
		L490.6,335.4z M401.2,377.8l59.5-59.5c2-2,2-5.3,0-7.3c0,0,0,0,0,0l-7.3-7.3c-2-2-5.3-2-7.3,0c0,0,0,0,0,0l-48.5,48.5l-22.6-22.7
		c-2-2-5.3-2-7.3,0l-7.3,7.4c-2,2-2,5.3,0,7.3l33.6,33.6C395.9,379.9,399.2,379.9,401.2,377.8C401.2,377.9,401.2,377.9,401.2,377.8
		L401.2,377.8z"/>
</g>
</svg>
