<?xml version="1.0" encoding="utf-8"?>
<!-- Generator: Adobe Illustrator 23.0.1, SVG Export Plug-In . SVG Version: 6.00 Build 0)  -->
<svg version="1.1" id="f2456c70-ccca-41b2-a3e1-979b94970e3c"
	 xmlns="http://www.w3.org/2000/svg" xmlns:xlink="http://www.w3.org/1999/xlink" x="0px" y="0px" viewBox="0 0 720 698"
	 style="enable-background:new 0 0 720 698;" xml:space="preserve">
<style type="text/css">
	.st0{opacity:0.1;fill:#1D3A83;enable-background:new    ;}
	.st1{fill:#3A3768;}
	.st2{fill:#E6E8EC;}
	.st3{opacity:0.3;}
	.st4{fill:#317A93;}
	.st5{display:none;fill:#1D3A83;}
	.st6{fill:#2A5915;}
	.st7{fill:#AD2121;}
	.st8{fill:#FBBEBE;}
	.st9{fill:#3F3D56;}
	.st10{opacity:0.1;enable-background:new    ;}
	.st11{fill:#1D3A83;}
	.st12{opacity:0.1;}
	.st13{fill:#666666;}
	.st14{fill:#EA0707;}
	.st15{fill:#EF5350;}
	.st16{fill:#FFCDD2;}
	.st17{fill:#AFAFAF;}
</style>
<title>mobile life</title>
<ellipse class="st0" cx="360.5" cy="674.2" rx="342.5" ry="17"/>
<path class="st1" d="M444.6,158.4h5.3c1.3,0,2.3,1,2.3,2.3v77.2c0,1.3-1,2.3-2.3,2.3h-5.3c-1.3,0-2.3-1-2.3-2.3v-77.2
	C442.4,159.4,443.4,158.4,444.6,158.4z"/>
<path class="st1" d="M115.1,94.3h1c1.3,0,2.3,1,2.3,2.3v22.3c0,1.3-1,2.3-2.3,2.3h-1c-1.3,0-2.3-1-2.3-2.3V96.6
	C112.8,95.3,113.8,94.3,115.1,94.3z"/>
<path class="st1" d="M114.9,143.6h1.7c1.3,0,2.3,1,2.3,2.3v42.3c0,1.3-1,2.3-2.3,2.3h-1.7c-1.3,0-2.3-1-2.3-2.3v-42.3
	C112.6,144.6,113.6,143.6,114.9,143.6z"/>
<path class="st1" d="M115,206.8h1.4c1.3,0,2.3,1,2.3,2.3v42.7c0,1.3-1,2.3-2.3,2.3H115c-1.3,0-2.3-1-2.3-2.3v-42.7
	C112.7,207.8,113.7,206.8,115,206.8z"/>
<path class="st1" d="M154.9,5.4h253.8c21.5,0,39,17.5,39,39v596.3c0,21.5-17.5,39-39,39H154.9c-21.5,0-39-17.5-39-39V44.4
	C115.9,22.9,133.4,5.4,154.9,5.4z"/>
<path class="st2" d="M253.7,25.5h38.6c2.1,0,3.9,1.7,3.9,3.9v1.7c0,2.1-1.7,3.9-3.9,3.9h-38.6c-2.1,0-3.9-1.7-3.9-3.9v-1.7
	C249.8,27.3,251.6,25.5,253.7,25.5z"/>
<circle class="st2" cx="308.5" cy="30.2" r="5.3"/>
<path class="st2" d="M400.9,23h-38v4.6c0,12-9.7,21.7-21.7,21.7l0,0H220.1c-12,0-21.7-9.7-21.7-21.7c0,0,0,0,0,0V23h-35.6
	c-14.6,0-26.4,11.8-26.4,26.4l0,0v586.4c0,14.6,11.8,26.3,26.4,26.3h238.1c14.5,0,26.3-11.8,26.3-26.3c0,0,0,0,0,0V49.3
	C427.2,34.8,415.4,23,400.9,23C400.9,23,400.9,23,400.9,23z"/>
<g class="st3">
	<path class="st4" d="M158,592.2h249.3c2.8,0,5,1.7,5,3.9v10.2c0,2.1-2.3,3.9-5,3.9H158c-2.8,0-5-1.7-5-3.9v-10.2
		C153,594,155.3,592.2,158,592.2z"/>
	<path class="st4" d="M158,620.2h249.3c2.8,0,5,1.7,5,3.9v10.2c0,2.1-2.3,3.9-5,3.9H158c-2.8,0-5-1.7-5-3.9v-10.2
		C153,622,155.3,620.2,158,620.2z"/>
	<path class="st4" d="M158,648.2h249.3c2.8,0,5,1.7,5,3.9v10.2c0,2.1-2.3,3.9-5,3.9H158c-2.8,0-5-1.7-5-3.9v-10.2
		C153,650,155.3,648.2,158,648.2z"/>
</g>
<path class="st5" d="M169.9,98.6H395c3.3,0,5.9,1.7,5.9,3.9v46.2c0,2.1-2.6,3.9-5.9,3.9H169.9c-3.3,0-5.9-1.7-5.9-3.9v-46.2
	C164,100.3,166.6,98.6,169.9,98.6z"/>
<g class="st3">
	<path class="st6" d="M158,218.8h249.3c2.8,0,5,1.7,5,3.9v10.2c0,2.1-2.3,3.9-5,3.9H158c-2.8,0-5-1.7-5-3.9v-10.2
		C153,220.5,155.3,218.8,158,218.8z"/>
	<path class="st6" d="M158,246.8h249.3c2.8,0,5,1.7,5,3.9v10.2c0,2.1-2.3,3.9-5,3.9H158c-2.8,0-5-1.7-5-3.9v-10.2
		C153,248.5,155.3,246.8,158,246.8z"/>
	<path class="st6" d="M158,274.8h249.3c2.8,0,5,1.7,5,3.9v10.2c0,2.1-2.3,3.9-5,3.9H158c-2.8,0-5-1.7-5-3.9v-10.2
		C153,276.5,155.3,274.8,158,274.8z"/>
	<path class="st6" d="M158,302.8h249.3c2.8,0,5,1.7,5,3.9v10.2c0,2.1-2.3,3.9-5,3.9H158c-2.8,0-5-1.7-5-3.9v-10.2
		C153,304.5,155.3,302.8,158,302.8z"/>
	<path class="st6" d="M158,330.8h88.5c2.8,0,5,1.7,5,3.9v10.2c0,2.1-2.3,3.9-5,3.9H158c-2.8,0-5-1.7-5-3.9v-10.2
		C153,332.5,155.3,330.8,158,330.8z"/>
</g>
<g class="st3">
	<path class="st7" d="M158,401.5h249.3c2.8,0,5,1.7,5,3.9v10.2c0,2.1-2.3,3.9-5,3.9H158c-2.8,0-5-1.7-5-3.9v-10.2
		C153,403.2,155.3,401.5,158,401.5z"/>
	<path class="st7" d="M158,429.5h249.3c2.8,0,5,1.7,5,3.9v10.2c0,2.1-2.3,3.9-5,3.9H158c-2.8,0-5-1.7-5-3.9v-10.2
		C153,431.2,155.3,429.5,158,429.5z"/>
	<path class="st7" d="M158,457.5h249.3c2.8,0,5,1.7,5,3.9v10.2c0,2.1-2.3,3.9-5,3.9H158c-2.8,0-5-1.7-5-3.9v-10.2
		C153,459.2,155.3,457.5,158,457.5z"/>
	<path class="st7" d="M158,485.5h249.3c2.8,0,5,1.7,5,3.9v10.2c0,2.1-2.3,3.9-5,3.9H158c-2.8,0-5-1.7-5-3.9v-10.2
		C153,487.2,155.3,485.5,158,485.5z"/>
	<path class="st7" d="M158,513.5h88.5c2.8,0,5,1.7,5,3.9v10.2c0,2.1-2.3,3.9-5,3.9H158c-2.8,0-5-1.7-5-3.9v-10.2
		C153,515.2,155.3,513.5,158,513.5z"/>
</g>
<path class="st8" d="M565.4,426.9c0.3,4,1.4,8.7,5.2,10.1c1.8,0.5,3.8,0.5,5.6-0.1c4.7-1,9.1-3.5,12.3-7.1c3.1-3.7,4.7-8.8,3.4-13.5
	c-1.3-4.4-4.8-7.7-7.3-11.6c-2.9-4.5-3.9-9.6-5.9-14.4C562.5,392,564.5,414.9,565.4,426.9z"/>
<path class="st9" d="M548.4,234.1c-2.2,7,5.5,14.6,7.9,21.5s5.8,13.5,7.1,20.7c0.9,5,0.9,10,1.2,15c0.7,9.5,2.8,18.7,5,27.9
	c3.2,13.3,6.6,26.5,10.2,39.7c1.8,6,3.2,12.1,4.2,18.2c0.9,6.7,0.9,13.4-0.1,20.1c-6.3-1.9-13.2-1.3-19.1,1.8
	c-4.1-7.2-6.6-15.3-7.3-23.6c-0.2-4.9-0.2-9.9,0.1-14.8c0.6-13.9-5.4-27.8-5.6-41.8c0.1-4.8-0.3-9.6-1.1-14.4
	c-0.7-3.3-0.6-9.4-1.3-12.6c-1.1-5.2,3.7-7.6,3.5-12.9l-1.5-29C551.4,244.9,546.3,238.6,548.4,234.1z"/>
<path class="st10" d="M548.4,234.1c-2.2,7,5.5,14.6,7.9,21.5s5.8,13.5,7.1,20.7c0.9,5,0.9,10,1.2,15c0.7,9.5,2.8,18.7,5,27.9
	c3.2,13.3,6.6,26.5,10.2,39.7c1.8,6,3.2,12.1,4.2,18.2c0.9,6.7,0.9,13.4-0.1,20.1c-6.3-1.9-13.2-1.3-19.1,1.8
	c-4.1-7.2-6.6-15.3-7.3-23.6c-0.2-4.9-0.2-9.9,0.1-14.8c0.6-13.9-5.4-27.8-5.6-41.8c0.1-4.8-0.3-9.6-1.1-14.4
	c-0.7-3.3-0.6-9.4-1.3-12.6c-1.1-5.2,3.7-7.6,3.5-12.9l-1.5-29C551.4,244.9,546.3,238.6,548.4,234.1z"/>
<path class="st8" d="M475.4,211.6c0.4,1.7,1.2,3.3,2.3,4.6c10.1,14.1,21.7,27.2,34.4,39c1.3-1.3,2.4-2.9,3.2-4.5
	c5.8-10.6,8.7-22.5,8.4-34.6c-5.8-1.9-12.3-4.5-14.2-10.2c-1.5-4.6,0.5-10-2.1-14.1c-3.7-5.7-19.2-6.5-24.3-2.3
	c-3.3,2.7-2.1,5.3-3.1,8.9C478.9,202.5,474.7,207.3,475.4,211.6z"/>
<path class="st10" d="M475.4,211.6c0.4,1.7,1.2,3.3,2.3,4.6c10.1,14.1,21.7,27.2,34.4,39c1.3-1.3,2.4-2.9,3.2-4.5
	c5.8-10.6,8.7-22.5,8.4-34.6c-5.8-1.9-12.3-4.5-14.2-10.2c-1.5-4.6,0.5-10-2.1-14.1c-3.7-5.7-19.2-6.5-24.3-2.3
	c-3.3,2.7-2.1,5.3-3.1,8.9C478.9,202.5,474.7,207.3,475.4,211.6z"/>
<path class="st9" d="M480.6,673.9c1.6,1.2,3.5,2,5.5,2.3c19,4.7,38.7,6.3,58.2,4.8c2.6-0.2,6.1-1.6,5.4-4.1s-4-2.2-6.3-2.9
	c-2.2-0.7-3.8-2.4-5.4-4c-6-6-13.3-10.5-20.4-15.1c-1.7-1.3-3.7-2.2-5.8-2.8c-2.5-0.6-5.1-0.1-7.5,0.4c-6.3,1.2-18.3,1-23.3,5.7
	C477,661.8,476.4,670.2,480.6,673.9z"/>
<path class="st9" d="M553.7,668.9c0,1.5,0.2,3.3,1.4,4.3c0.9,0.7,2.1,1,3.2,0.9c8.3-0.1,15.9-4.7,19.8-12l28-3.3
	c5.3-0.6,10.7-1.3,15.6-3.5c5.8-2.6,10.3-7.2,14.8-11.6c0.8-0.7,1.4-1.5,1.7-2.5c0.5-1.8-0.9-3.6-2.6-4.3c-1.7-0.6-3.6-0.7-5.4-0.3
	c-13.7,1.9-27.4,8-40.8,4.6c-3.3-0.8-6.5-2.2-9.9-2c-1.8,0.2-3.6,0.7-5.3,1.4c-4.3,1.6-17.3,3.9-20.2,7.5S553.7,664.5,553.7,668.9z"
	/>
<path class="st1" d="M482.9,356.2c-4,6.2-12.4,7.6-18.3,12.1c-9,6.9-10.6,19.7-11.1,31c-0.4,7.8-0.6,15.8,1.2,23.5
	c1.2,5.3,3.3,10.4,5,15.7c3.5,11.4,4.5,23.3,5,35.2c1.4,30,0.2,60.2,4,90c1.1,8.5,2.6,17,3.5,25.5c2.8,28.3-1.9,57.5,5.7,84.9
	c8.2-8.9,19.7-14,31.8-14.2c2.5,0,5.1,0.2,7.4-0.9s4.1-3.7,3.2-6c-0.6-1-1.2-1.9-2-2.8c-3.3-5,2.3-12.1-0.1-17.6
	c-0.9-2.1-2.9-3.7-3.5-5.9c-0.6-2.4,0.6-4.9,0.9-7.4c0.7-5-2.2-9.7-3.7-14.5c-2.3-7.3-1.3-15-0.6-22.6c2.6-24.8,3.7-49.7,3.4-74.7
	c-0.2-16.9-1.1-34.1,3.8-50.3c9.1,8.6,16.9,18.4,23.1,29.3c3.9,6.6,7.2,13.7,8.5,21.2c1,5.5,0.8,11.2,0.6,16.8l-2.9,86.3
	c-0.6,17.4-1.1,35.3,5,51.6c15.3-8.2,31-16,46.3-24.2c-0.3-5.7-7.8-7.7-10.7-12.6c-1-2.1-1.5-4.3-1.6-6.6c-2-23.4,2.8-46.7,7.2-69.8
	c1.7-8.8,3.3-17.6,3.3-26.6c0-14.2-4.2-28-8.4-41.5c-4.5-14.3-9.3-28.6-14-42.8c-3-9.2-6.1-18.3-9.9-27.2c-3.6-8.4-7.9-16.5-11-25
	c-4.9-13.8-6.6-28.5-8.3-43C524.8,347.5,503.7,352.1,482.9,356.2z"/>
<circle class="st8" cx="493.3" cy="172.7" r="29.2"/>
<path class="st11" d="M504.3,243.4l-2.1-15.8c-0.1-1.8-0.6-3.5-1.4-5.1c-1-1.4-2.2-2.6-3.7-3.5l-20.4-14.9c-1-0.8-2.4-1.6-3.5-1
	c-0.7,0.5-1.2,1.2-1.4,2.1c-3.2,9.5-1.2,19.9-0.1,29.8c0.9,8.3,1.3,16.7,1.6,25c0.5,7.6,0.5,15.1,0,22.7c-1.1,13.1-5,26.3-2.4,39.1
	c1.7,8.5,4.8,16.4,5.5,25.1c0.5,6,0.3,12.1,2.2,17.8c7-3,14.9-2.7,22.5-2.3l18.5,1c2.6,0.2,5.1,0.2,7.7-0.2c2.8-0.6,5.6-1.7,8.1-3.2
	c6.6-3.7,12.3-8.7,16.9-14.7c-3.1-15.1-0.1-30.6-2.2-45.9c-1.2-8.8-4.2-17.3-5.6-26c-1.7-10.8-1-22-4.2-32.5
	c-1.7-5.3-4-10.5-6.6-15.4c-2.7-5.6-7.2-10.1-12.7-13c-1-0.6-2.2-0.9-3.3-0.9c-3,0.2-4.8,3.3-5.6,6.1c-1,3.4-1.3,7-2.1,10.4
	C508.8,233.4,507.2,239.2,504.3,243.4z"/>
<path class="st9" d="M444.4,431.9c3.9,4.1,11,3.1,15.5-0.3c9.8-7.4,10.8-21.5,11.3-33.8c0.2-4.4,0.5-9,2.6-12.9
	c3.2-6,9.7-9.1,15.2-13.1c12.9-9.5,20.5-25,22.7-40.8s-0.3-32-4.7-47.4c-7.5-26.6-20.2-51.3-33.1-75.8c-0.4-0.9-1-1.7-1.8-2.3
	c-2.6-1.6-5.5,1.6-7.3,4.1c-6.1,8.5-16.1,13.1-25.2,18.1s-18.5,11.7-21.3,21.8c-1.9,6.8-0.4,13.9,1,20.8s6.3,12.3,10.1,18.1
	c4.3,6.4,8.2,13,11.7,19.9c1.3,2.6,2.3,5.3,3,8.1c0.6,3.3,0.9,6.6,0.8,10c0.2,20.7,0.4,41.5-2.1,62.1c-1.4,11.6-3.7,23.3-2.7,35
	C440.3,426.7,442.2,429.5,444.4,431.9z"/>
<path class="st8" d="M469.1,393.3c4.2,1.9,8.4,3.8,12.9,4.5s9.4,0.1,13-2.6s5.5-8.1,3.4-12.2c3.2,0.1,6.4-0.1,9.6-0.5
	c1.8-0.2,4-0.9,4.3-2.8c0.3-2.1-2.2-3.4-4.3-4l-11.2-3.1c-3.3-1-6.7-1.7-10.1-1.9c-2.1,0-4.2,0.3-6.3,0.6l-16.9,2.6
	c-0.5,0-0.9,0.2-1.3,0.4c-0.5,0.4-0.9,1-1,1.7c-0.8,2.6-4.6,9.8-3.3,12.4C459,390.8,466.8,392.1,469.1,393.3z"/>
<path class="st9" d="M575.6,404.2c-2.1,4.6-6,8.1-10.9,9.5c-1,0.4-2.2,0.4-3.2,0.2c-2-0.5-3.1-2.6-3.9-4.5
	c-19.8-45.1-18.7-96.4-31.3-144c-3.7-14.1-8.7-28.3-7.8-42.9c0.2-2.6,0.7-5.5,2.9-7c1.9-1.3,4.6-1,6.7,0s4,2.5,6,3.6
	c3.3,1.7,7.2,2.2,10.3,4.1c4.7,2.8,7.1,8.2,9.2,13.3c4.5,10.9,9,22,9.4,33.8c0.8,22.8-9.4,44.8-4.1,67c1.1,4.4,2.5,8.7,4.1,12.9
	c5.3,15.3,9.6,31,13,46.8C576.6,399.6,576.7,401.7,575.6,404.2z"/>
<path class="st1" d="M474.4,175.3c1.7-2.8,4.2-5.3,5.1-8.5c0.7-2.3,0.5-4.7,1.3-7c2-5.5,9-7.5,14.7-6.5s10.9,4,16.5,5.5
	c3.1,0.9,7.4,0.6,8.3-2.5c0.6-2.1-0.8-4.1-2.1-5.8l-16.6-21.2c-2.2,0.6-4.6,1.1-6.6,0c-1.2-0.6-2-1.7-3.3-2.1
	c-3.5-1-6.3,4.3-9.8,3.4c-1-0.3-1.8-1-2.8-1.1c-2.8-0.2-3.8,4.4-6.6,4.6c-1.2,0.1-2.3-0.6-3.4-0.5c-1,0.2-1.9,0.8-2.6,1.6
	c-5.5,5.9-7.8,14.3-7.5,22.4s-1.1,15.9,2,23.4c1.4,3.3,4.1,7.1,7.5,6c0-4.4,4.1-8.8,4.2-13.2"/>
<g class="st12">
	<path d="M530.9,471.1c-6-9.8-13.2-18.8-21.6-26.7c-4.9,16.2-4,33.4-3.8,50.3c0.3,24.9-0.8,49.9-3.4,74.7
		c-0.8,7.5-1.7,15.3,0.6,22.6c1.5,4.8,4.4,9.5,3.7,14.5c-0.3,2.5-1.6,5-0.9,7.4c0.6,2.2,2.6,3.8,3.5,5.9c2.4,5.5-3.2,12.6,0.1,17.6
		c0.8,0.9,1.4,1.8,2,2.8c1,2.3-0.9,5-3.2,6s-4.9,0.8-7.4,0.9c-9.5,0.2-18.6,3.4-26.1,9.1c0.7,6.1,1.8,12.2,3.4,18.1
		c8.2-8.9,19.7-14,31.8-14.2c2.5,0,5.1,0.2,7.4-0.9s4.1-3.7,3.2-6c-0.6-1-1.2-1.9-2-2.8c-3.3-5,2.3-12.1-0.1-17.6
		c-0.9-2.1-2.9-3.7-3.5-5.9c-0.6-2.4,0.6-4.9,0.9-7.4c0.7-5-2.2-9.7-3.7-14.5c-2.3-7.3-1.3-15-0.6-22.6c2.6-24.8,3.7-49.7,3.4-74.7
		c-0.2-16.9-1.1-34.1,3.8-50.3C522.9,461.6,527,466.2,530.9,471.1z"/>
</g>
<g class="st12">
	<path d="M459.1,158.6c0-1.4,0-2.8,0-4.1c0,1.1-0.1,2.1,0,3.2C459.1,158,459.1,158.3,459.1,158.6z"/>
	<path d="M512.1,154.8c-5.6-1.5-10.8-4.6-16.5-5.5s-12.7,1.1-14.7,6.5c-0.8,2.2-0.7,4.7-1.3,7c-1,3.2-3.4,5.7-5.1,8.5l-1.7-1.5
		c0,4.4-4.1,8.8-4.2,13.2c-3.4,1.1-6.1-2.8-7.5-6c-1.4-3.6-2.1-7.4-2.1-11.3c-0.1,5.2,0,10.3,2.1,15.3c1.4,3.3,4.1,7.1,7.5,6
		c0-4.4,4.1-8.8,4.2-13.2l1.7,1.5c1.7-2.8,4.2-5.3,5.1-8.5c0.7-2.3,0.5-4.7,1.3-7c2-5.5,9-7.5,14.7-6.5s10.9,4,16.5,5.5
		c3.1,0.9,7.4,0.6,8.3-2.5c0.3-1.1,0.1-2.2-0.4-3.1C518.6,155.4,514.9,155.6,512.1,154.8z"/>
</g>
<path class="st9" d="M417.6,279.5c-0.8,6.1-2.1,12.2-3.7,18.1l-7,28.5c-0.8,3-1.5,6.2-1.2,9.3c0.5,4.2,2.8,7.9,5.3,11.4
	c13.7,19.7,30.4,37,49.5,51.4c-1.1-5.7,2.8-11,6.6-15.5s7.3-8.8,12.2-11.7c-12.1-11.4-23.9-23.2-35.2-35.5c-1.2-1.2-2.2-2.5-3.1-4
	c-2.7-5.3,0-11.6,2.4-17.1c7.5-17.4,11.1-37.1,6.3-55.5c-1.8-6.9-5-13.8-10.8-18c-2.5-1.8-6-3.1-8.8-1.7c-1.2,0.7-2.2,1.6-3,2.7
	C418.1,253,419.1,266.2,417.6,279.5z"/>
<circle class="st11" cx="273" cy="133.2" r="57.2"/>
<g>
	<g>
		<rect x="280.4" y="112.8" class="st13" width="0.7" height="0.2"/>
		<path class="st14" d="M300.7,146.6l-0.1,8.6h-55.3l0-8.6l6.7-37c0.7-3.8,3.8-6.5,7.3-6.5h27.3c3.6,0,6.6,2.7,7.3,6.5L300.7,146.6z
			"/>
		<ellipse class="st15" cx="273" cy="124.8" rx="16.6" ry="17.9"/>
		<polygon class="st16" points="262.6,133.4 262.7,116.2 272.9,125 		"/>
		<polygon class="st16" points="283.6,133.4 283.5,116.2 273.3,125 		"/>
		<path class="st17" d="M240.4,157.4l0-5.9c0-2.7,2-4.8,4.4-4.8l56.2,0c2.4,0,4.4,2.1,4.5,4.7l0.1,6
			C305.6,157.4,240.4,157.4,240.4,157.4z"/>
	</g>
</g>
</svg>
