<?xml version="1.0" encoding="utf-8"?>
<!-- Generator: Adobe Illustrator 23.0.1, SVG Export Plug-In . SVG Version: 6.00 Build 0)  -->
<svg version="1.1" id="Layer_1" xmlns="http://www.w3.org/2000/svg" xmlns:xlink="http://www.w3.org/1999/xlink" x="0px" y="0px"
	 viewBox="0 0 720 698" style="enable-background:new 0 0 720 698;" xml:space="preserve">
<style type="text/css">
	.st0{opacity:0.1;fill:#6C63FF;enable-background:new    ;}
	.st1{fill:#3A3768;}
	.st2{fill:#BCD1D3;}
	.st3{fill:#E6E8EC;}
	.st4{fill:url(#SVGID_1_);}
	.st5{fill:#4A4A76;}
	.st6{opacity:0.1;}
	.st7{fill:#6C63FF;}
	.st8{fill:#22223F;}
	.st9{fill:#FFB9B9;}
	.st10{opacity:0.1;enable-background:new    ;}
	.st11{fill:#FFFFFF;}
	.st12{fill:#F57979;}
	.st13{fill:#FEE000;}
</style>
<g>
	<ellipse class="st0" cx="361.4" cy="655.8" rx="251.5" ry="29"/>
	<path class="st1" d="M460.6,159.4h4.6c1.4,0,2.4,1.1,2.4,2.4V235c0,1.4-1.1,2.4-2.4,2.4h-4.6c-1.4,0-2.4-1.1-2.4-2.4v-73.2
		C458.1,160.5,459.2,159.4,460.6,159.4z"/>
	<path class="st1" d="M145.6,98.2h0.4c1.4,0,2.4,1.1,2.4,2.4v20.8c0,1.4-1.1,2.4-2.4,2.4h-0.4c-1.4,0-2.4-1.1-2.4-2.4v-20.8
		C143.1,99.3,144.2,98.2,145.6,98.2z"/>
	<path class="st1" d="M145.4,145.3h1.1c1.4,0,2.4,1.1,2.4,2.4v39.9c0,1.4-1.1,2.4-2.4,2.4h-1.1c-1.4,0-2.4-1.1-2.4-2.4v-39.9
		C143,146.4,144,145.3,145.4,145.3z"/>
	<path class="st1" d="M145.5,205.7h0.8c1.4,0,2.4,1.1,2.4,2.4v40.2c0,1.4-1.1,2.4-2.4,2.4h-0.8c-1.4,0-2.4-1.1-2.4-2.4v-40.2
		C143,206.8,144.1,205.7,145.5,205.7z"/>
	<path class="st1" d="M187.9,13.2h233.7c23,0,41.7,18.7,41.7,41.7v561c0,23-18.7,41.7-41.7,41.7H187.9c-23,0-41.7-18.7-41.7-41.7
		v-561C146.2,31.9,164.8,13.2,187.9,13.2z"/>
	<path class="st2" d="M418.5,29.9h-36.4v4.4c0,11.5-9.3,20.7-20.7,20.7l0,0H245.7c-11.5,0-20.7-9.3-20.7-20.7l0,0v-4.4h-34.1
		c-13.9,0-25.2,11.3-25.2,25.2l0,0v560.5c0,13.9,11.3,25.2,25.2,25.2h227.6c13.9,0,25.2-11.3,25.2-25.2V55.1
		C443.7,41.2,432.5,29.9,418.5,29.9L418.5,29.9z"/>
	<path class="st3" d="M278.3,32.4h36c2.3,0,4.1,1.9,4.1,4.1v0.7c0,2.3-1.9,4.1-4.1,4.1h-36c-2.3,0-4.1-1.9-4.1-4.1v-0.7
		C274.1,34.3,276,32.4,278.3,32.4z"/>
	<circle class="st3" cx="330.2" cy="36.9" r="5.1"/>
	<title>heartbroken</title>
	<g>
		
			<linearGradient id="SVGID_1_" gradientUnits="userSpaceOnUse" x1="548.0328" y1="27.5788" x2="548.0328" y2="348.0406" gradientTransform="matrix(1 0 0 -1 -64.27 688.65)">
			<stop  offset="0" style="stop-color:#808080;stop-opacity:0.25"/>
			<stop  offset="0.54" style="stop-color:#808080;stop-opacity:0.12"/>
			<stop  offset="1" style="stop-color:#808080;stop-opacity:0.1"/>
		</linearGradient>
		<path class="st4" d="M565.7,560.4c0,0-26.4,8.7-27.4,11c-0.4,1-5.2,3.2-10.5,5.4c0.7-2.9,0.1-6.5-0.8-7.7c-0.2-0.3-0.5-0.7-1-1.3
			c2.2-4.9,4.4-10.3,7.2-14.8c4.7-7.7,4.3-17.3,4.3-17.3l3-10.8c0,0,4.2-20.2,4.2-21.9v-21.2c0,0,0.3-3.1,0.7-6.8
			c3.9-3.3,6.8-7.7,8.4-12.6l-3.1-3.7c0.9-1.1,1.6-2.3,2.1-3.6c0.5-1.5,0.8-3.1,0.8-4.7c0-0.9-0.1-1.9-0.2-2.8c0,0,0,0.1,0,0.1
			c-0.5-2.5-1.2-4.9-2.2-7.2c-2-4.6-4.4-9.2-4.6-14.2c-0.6-13.7,15.3-23.3,16.2-37c0-0.3,0-0.6,0-0.9c0-0.1,0-0.2,0-0.3s0-0.3,0-0.5
			c0-0.8-0.1-1.5-0.2-2.3c0,0,0,0.1,0,0.1c-1-6.6-5.4-12.6-10.6-17c-6.2-5.2-13.7-8.7-20.4-13.3s-12.7-10.3-20.3-12.9
			c-4.8-1.6-9.8-1.8-14.8-1.8c-10,0.2-19.1,2.7-28.8,4.3c-6.8,1.1-15.7-2.2-21.3,3.5c-4.4,4.6-1.4,13.3-5.9,17.9
			c-2.1,2.1-5.3,2.7-7.9,4.1c-4.6,2.5-7,7.6-7.6,12.9c0,0,0-0.1,0-0.1c0,0.3,0,0.6-0.1,0.9l0,0c0,0.4,0,0.7-0.1,1.1s0,0.6,0,0.9v0.3
			c0,1.1,0.1,2.2,0.3,3.2c1.1,7.3,4.7,13.8,7.3,20.7s4.1,14.8,1,21.4c-2,4.4-5.9,7.8-8,12.2c-0.8,1.8-1.4,3.8-1.6,5.8
			c0,0,0-0.1,0-0.1c0,0.2,0,0.5,0,0.7l0,0c-1.9,1.9-3.4,4.2-4.5,6.6c-2.4,5.3-5.4,6.5-6.2,6.8h-0.4c0,0-1.4,8.5,5.8,14
			c0.2,3.2,0.6,6.2,1.4,7.9c0.7,1.3,1,4.7,1.1,8.9c0,0.2,0,0.4,0,0.6l-0.7-0.6c0,0-9-22.7-9.5-27s-4.4-10.6-4.4-10.6
			s-13.2-17.5-30.2-18.2s1.6,7.9,1.6,7.9s-6.8,17.4,13.7,23.8c0,0,5.2,6.4,6,11.5s7,23.2,7,23.2s7.3,28.3,22.9,38.6
			c0,0,4.9,0.2,8.3-2.7c1.9-1.1,3.6-2.5,5-4.3c-0.4,1.8-1.1,3.5-2,5c-5.2,7.9-5.2,11.2-5.2,11.2s2.4,5.1-1.8,6.4s-2.6,5.9-2.6,5.9
			s-4.3,3.2-5.1,6.2c-9.5-6.2-22.4-15-25.4-18.3c-4.9-5.4-38.6,3.4-26.1,28.6c0,0,7.8,16,19.9,24.7c1.4,1,2.7,2,3.9,3
			c2.1,2.8,4.6,5.2,7.5,7.2c1.8,2,3.4,3.8,4.7,5.4c-0.1,0-0.1,0.1-0.2,0.1l-0.3,0.3l-0.2,0.2c-0.1,0.1-0.2,0.2-0.3,0.3l-0.2,0.2
			c-0.1,0.1-0.2,0.3-0.3,0.4c0,0.1-0.1,0.1-0.1,0.2c-0.2,0.2-0.3,0.4-0.5,0.6c-5,7.3-7.5,25.1-7.5,25.1s0.9,7.2,12.3,7.8
			c1.1,0,2.1-0.1,3.2-0.4c0.4-0.1,0.7-0.3,0.9-0.7c0.3-1.1,15.4-5.3,26.2-4s16.2-0.2,16.2-0.2s0.8-1.6,1.6-3.7l17-4.6l1.1-0.3
			c8,2.7,15.5,5.3,15.5,5.3s9.8,5.9,11.9,6.6c1.4,0.4,6,0.3,9,0.2c0.2,1.2,0.3,1.9,0.3,1.9s7.7,0.5,11.3,1.1s27-2.1,35.8,2.4
			c0,0,0.4,0.1,1.1,0.2c4.9,0.8,24,2.6,23.3-14.4c-0.9-19.5-16.9-21.7-16.9-21.7c-4.1-0.4-8.3-0.2-12.4,0.5c8-5,19.5-12.3,29.1-19.4
			c10.6-7.8,12.4-13.3,12.4-16.3c-0.1-2.8,0-5.7,0.3-8.5C602,546.8,565.7,560.4,565.7,560.4z M516.3,543.6c0.7-1,1.1-2.3,1.2-3.5
			c-0.5,2.8-1.4,5.5-2.5,8.1C515.1,545.9,515.3,544.7,516.3,543.6L516.3,543.6z M518,535.7c0,0,0.2-2.3,0.6-4.9
			c-0.3,2.2-0.5,4.2-0.7,5.8C517.9,536.1,518,535.7,518,535.7L518,535.7z"/>
		<path class="st5" d="M446.5,351.9c-4.4,4.5-1.4,13.2-5.9,17.7c-2.1,2.1-5.3,2.7-7.9,4.1c-6.4,3.5-8.6,11.9-7.5,19
			s4.7,13.7,7.3,20.5s4.1,14.6,1,21.2c-2,4.4-5.9,7.7-8,12.1c-3.1,6.6-1.6,14.4,0.9,21.2c2.7,7.2,7.1,14.4,14.3,17.2
			c5.1,2,10.7,1.5,16.1,2.5c7.9,1.5,15.2,6.4,23.2,6.3c7.8-0.1,14.7-5,20.7-10.2s11.7-10.9,19.2-13.3c5.9-1.9,12.3-1.6,18.3-2.6
			s12.6-4,14.7-9.8c1.7-4.7,0.2-9.9-1.7-14.4s-4.4-9.1-4.6-14c-0.6-13.6,15.3-23.1,16.2-36.7c0.5-8.1-4.5-15.6-10.8-20.7
			s-13.7-8.6-20.4-13.2s-12.7-10.2-20.3-12.8c-4.8-1.4-9.8-2-14.8-1.8c-10,0.2-19.1,2.6-28.8,4.2C461,349.6,452,346.3,446.5,351.9z"
			/>
		<g class="st6">
			<path d="M432.5,413c1.3,3.3,2.2,6.7,2.6,10.3c0.6-5.1-0.7-10.6-2.6-15.5c-2.6-6.8-6.2-13.3-7.3-20.5c0-0.3-0.1-0.6-0.1-1
				c-0.2,2-0.2,4.1,0.1,6.2C426.3,399.7,429.9,406.2,432.5,413z"/>
			<path d="M553,452.3c-2.2,5.8-8.6,8.8-14.7,9.8s-12.5,0.7-18.3,2.6c-7.5,2.4-13.3,8.2-19.2,13.3s-12.8,10-20.7,10.2
				c-8.1,0.1-15.3-4.8-23.2-6.3c-5.3-1-11-0.5-16.1-2.5c-7.2-2.8-11.5-10-14.3-17.2c-1.3-3.3-2.1-6.7-2.5-10.2
				c-0.6,5.1,0.7,10.5,2.5,15.4c2.7,7.2,7.1,14.4,14.3,17.2c5.1,2,10.7,1.5,16.1,2.5c7.9,1.5,15.2,6.4,23.2,6.3
				c7.8-0.1,14.7-5,20.7-10.2s11.7-10.9,19.2-13.3c5.9-1.9,12.2-1.6,18.3-2.6s12.6-4,14.7-9.8c0.8-2.3,1-4.8,0.5-7.2
				C553.4,451,553.2,451.7,553,452.3z"/>
			<path d="M546.6,423.8c0,0.6,0.1,1.3,0.2,1.9c1.8-11.9,15.1-20.9,16-33.4c0.1-1.3,0-2.5-0.2-3.8
				C560.8,401.4,546,410.8,546.6,423.8z"/>
		</g>
		<path class="st7" d="M413.1,466.1c0,0-3.1,19.2,24.3,18.1s-13.5-19.5-13.5-19.5L413.1,466.1z"/>
		<path class="st8" d="M423.6,464.7l-10.8,1.4c0,0-3.1,19.2,24.3,18.1"/>
		<path class="st7" d="M553.9,464.9c0,0-5.7,20.6-28.7,17.5l-3.2-9.5l22.1-10.1L553.9,464.9z"/>
		<path class="st8" d="M544.1,462.9l9.8,2c0,0-5.7,20.6-28.7,17.5"/>
		<path class="st9" d="M444.5,527.6c-0.2,7.6-4,11.8-6.9,13.9c-1,0.8-2.2,1.4-3.3,1.9l-14.2-17.9c0,0,1.3-17.6,1.1-28.9
			c-0.1-4.2-0.4-7.5-1.1-8.8c-1.6-3.2-1.7-11.2-1.5-16.3c0.1-2.7,0.2-4.6,0.2-4.6l18.6,17.3c0,0,0.1,0.3,0.2,0.8
			C438.7,490,444.8,516.4,444.5,527.6z"/>
		<rect x="448.3" y="596.2" class="st5" width="19.2" height="16.9"/>
		<rect x="452.9" y="411.6" class="st5" width="61.3" height="49.9"/>
		<rect x="452.9" y="394" class="st10" width="57.1" height="67.5"/>
		<path class="st9" d="M465.5,422.9c0,0,11.4,20.8-7,22s-3.1,37.6-3.1,37.6s22.6,15,23.1,15s18.7,0.2,19.2-0.2s14.5-17.8,14.5-17.8
			l2-20.2l-5-16c0,0-19.4,8.3-14-22.3L465.5,422.9z"/>
		<path class="st9" d="M598.1,582.2c-0.3,2.8-0.4,5.6-0.3,8.4c0,3-1.8,8.5-12.4,16.2c-16.6,12-38.8,25.1-38.8,25.1l-40,13.8l-12.9-6
			l-9.1-4.3l-2.4-18.8l-2.1-16.5l33.5-16.3c0,0,23.8-8.7,24.8-11s27.4-10.9,27.4-10.9S602,548.5,598.1,582.2z"/>
		<path class="st5" d="M524,579.4l-2.9,4l-2.3,3.2c-14.7,1-36.5,34.4-36.5,34.4l-16-13.2c-10.2-13.2-23.8-23.5-39.3-29.8l0.2-0.3
			l3.4-6.2l49.8-5.9L524,579.4z"/>
		<path class="st10" d="M524,579.4l-2.9,4c-6.8-0.4-18.8-1.7-18.8-1.7s-5.9,3.6-9,2.3s-42.5-0.7-47.2-3.7
			c-3.7-2.4-13.7-1.6-18.9-2.6l3.4-6.2l49.8-5.9L524,579.4z"/>
		<path class="st1" d="M527.1,473.2l-1.1,10.7c4.7,14.7-5,29-5,29s1.5,10-0.3,12.6s-2.6,11.9-2.6,11.9s-0.2,6.3-1.6,7.8
			s-1.1,3.1-1.3,7.5c-0.1,3.5,6.7,11.4,10.2,15.5c0.9,1,1.5,1.8,1.8,2.3c1.5,2.1,2.3,11.7-3.6,11.6l-1.5-0.1c-1.3-0.1-3-0.2-4.7-0.3
			c-6.7-0.5-15-1.4-15-1.4c-0.8,0.5-1.6,0.9-2.4,1.3c-2,0.9-4.7,1.8-6.5,1c-3.1-1.3-42.5-0.7-47.2-3.7c-3.5-2.3-12.9-1.6-18.2-2.5
			c-1.8-0.3-3.1-0.8-3.6-1.6c-1.8-3.3,4.9-8.1,4.9-8.1s-1.6-4.6,2.6-5.9s1.8-6.3,1.8-6.3s0-3.3,5.2-11.1s2.9-30.3,2.9-30.3
			c-12-16.1-4.4-29-4.4-29l-9.8-34.5l5.7-5.2l27,0.3l-2.1,11.3c-2.9,21,25.6,30,25.6,30c26.5,0.8,21-28.3,21-28.3l-3.7-13.5
			c0,0,6.5-2.3,20.5-3.9c6.7-0.8,9.5,0.2,10.6,1.4c1.5,1.7,3.3,3.2,5.1,4.5c1.2,0.9,2.4,1.9,3.3,3.1l-9,16L527.1,473.2z"/>
		<path class="st9" d="M463.4,604.1L441.9,630l-6.2,7.5l-23.4-9.9c-5.4-7.8-12.1-14.6-19.7-20.2c-12-8.6-19.9-24.5-19.9-24.5
			c-12.5-25,21.2-33.7,26.1-28.3s35.8,24.9,35.8,24.9c5.4,1.4,13.3,8.4,19.5,14.5C459.4,599.4,463.4,604.1,463.4,604.1z"/>
		<circle class="st10" cx="480.7" cy="402.2" r="30.9"/>
		<circle class="st9" cx="480.7" cy="401.6" r="30.9"/>
		<path class="st10" d="M425.5,526.6c-1.8,1.3,1.7-2.3,1.7-2.3l-7.2,1.1c0,0,1.3-17.6,1.1-28.9c9.6,7.5,16.9,28.9,16.9,28.9
			C441,533.9,427.8,523.8,425.5,526.6z"/>
		<path class="st9" d="M437.3,525.5c0,0-7.3-21.5-16.9-29c0,0-9-22.5-9.5-26.7s-4.4-10.5-4.4-10.5s-13.2-17.4-30.3-18
			s1.6,7.8,1.6,7.8s-6.8,17.3,13.7,23.6c0,0,5.2,6.3,6,11.4s7,23,7,23s7.3,28,22.9,38.3C427.5,545.4,444.7,546.2,437.3,525.5z"/>
		<path class="st10" d="M515,552.9c-0.1,3.5,6.7,11.4,10.2,15.5c-1.4,3.4-3.2,6.7-5.2,9.8l-0.1,0.1l-2.6,3.5
			c-1.6,2.2-3.3,4.7-4.9,6.8c-2.2,3.2-4,5.6-4,5.6s-13.5,35.7-17.1,26.5c-1.3-3.2-1.8-6.7-1.7-10.1c0.2-7.1,3-15.5,8.5-25.9
			c0.6-1.1,1.1-2.1,1.7-3.2c1.6-3.2,3-6,4.2-8.5c2.1-4.4,4-8.9,5.7-13.5C509.8,559.5,515.2,548.5,515,552.9z"/>
		<path class="st9" d="M546.3,470c-0.5,5.8-1.4,14.1-1.4,14.1v21c0,1.6-4.2,21.7-4.2,21.7l-3,10.8c0,0,0.4,9.5-4.3,17.1
			s-7.8,17.9-12,23.6s-11.4,16-11.4,16s-13.6,35.6-17.2,26.5s-1.6-20.2,6.8-36s11.6-25.2,11.6-25.2s6-13.5,6.4-17.7
			s3.3-28.8,3.3-28.8s5.5-15.9,4.4-33.4c0-0.7,1.4-1.3,1.3-2c-1.8-18.2,19.8-13,19.8-13C546.6,466.4,546.5,468.2,546.3,470z"/>
		<path class="st10" d="M491.8,620.9c-3.8,5.8,43.6,6.8,36.4,7.5c-2.6,0.4-5.1,0.9-7.6,1.6l0,0c-13.4,3.4-37.5,10.9-37.5,10.9
			l-3.2,0.9l-23,6.1l1.7-12.3l1.4-10.2l17.4-8.6c0,0,2.3-1,5.1-2.4c4.9-2.3,11.6-5.5,11.8-6.1c0.3-0.8,17.1-11.9,17.1-11.9
			c4.7-4.4,41.7-21.3,41.7-21.3C597.5,565.5,495.5,615.2,491.8,620.9z"/>
		<path class="st10" d="M574.5,611.7c-3.7,5.8-39.1,18-46.3,18.7c-2.6,0.4-5.1,0.9-7.6,1.6l0,0c-7.7,1.9-18.8,5.2-27,7.7l-9.1-4.3
			l-2.4-18.8l0.4-0.2c4.9-2.3,11.6-5.6,11.8-6.1c0.3-0.8,29.6-3.3,29.6-3.3c4.7-4.4,29.2-30,29.2-30
			C538.6,606.3,578.2,605.9,574.5,611.7z"/>
		<path class="st9" d="M574.5,611.1c-3.7,5.8-39.1,18-46.3,18.7c-2.6,0.4-5.1,0.9-7.6,1.6l0,0c-1.5,0.4-3.2,0.8-5,1.3
			c-13.6,3.7-32.5,9.6-32.5,9.6l-3.2,0.9l-3.6,1l-16.9,4.5l-2.4,0.7l1.4-10.2l0.3-2.1l0.2-1.3l0,0l1.2-8.8l17.5-8.6
			c0,0,1.2-0.6,3-1.4l2.1-1c4.9-2.3,11.6-5.6,11.8-6.1c0.3-0.8,17.1-11.9,17.1-11.9c4.7-4.4,41.7-21.3,41.7-21.3
			C597.5,566.8,578.2,605.3,574.5,611.1z"/>
		<path class="st5" d="M461.6,639.8c-0.1,2.7-1.2,6.2-2.3,8.8c-0.8,2.2-1.6,3.7-1.6,3.7s-5.4,1.4-16.2,0.2s-25.8,2.9-26.2,4
			c-0.1,0.3-0.4,0.5-0.9,0.7c-1,0.3-2.1,0.4-3.2,0.4c-11.4-0.5-12.3-7.7-12.3-7.7s2.5-17.6,7.5-24.9c0.9-1.4,2.2-2.5,3.8-3.2
			c4.7-1.9,10,1.4,10,1.4c1.1,0.7,2.4,1.3,3.7,1.7l0,0c8.6,3.3,28.8,8.8,34.7,10.6l0,0l0.9,0.3C461.1,636.4,461.6,637.9,461.6,639.8
			z"/>
		<path class="st10" d="M410.1,643.4c0,0-4.5,11.2,4.3,13.8c-1,0.3-2.1,0.4-3.2,0.4c-11.4-0.5-12.3-7.7-12.3-7.7s2.5-17.6,7.5-24.9
			s13.8-1.7,13.8-1.7c1.1,0.7,2.4,1.3,3.7,1.7C424,625.1,411.9,626.7,410.1,643.4z"/>
		<path class="st10" d="M483.8,549.8c0,0,29.3-5.5,29.7-3.7S483.8,549.8,483.8,549.8z"/>
		<path class="st10" d="M493,554.3c0,0,17.7-3.6,17.8-2S493,554.3,493,554.3z"/>
		<path class="st10" d="M434.7,569.2c0,0,34.6,6.1,40.1,7.3s24.4,0,24.4,0s-24.3-0.3-27-2.3S434.7,569.2,434.7,569.2z"/>
		<path class="st10" d="M484.2,589c0,0,12-1.4,11,0S484.2,589,484.2,589z"/>
		<path class="st10" d="M478.8,607.8c0,0,10.3-9.2,10.3-7.9S478.8,607.8,478.8,607.8z"/>
		<path class="st10" d="M463.4,604.1L441.9,630c-2.6-1-5.3-1.7-8-2.2c-8.8-1.5-34.2-9.3-38.9-22.6c0,0,100.1,27,96.7,24.3
			s-120.5-78.7-76.8-59.4c0,0,25.3,12.9,39.2,24.1C459.4,599.4,463.4,604.1,463.4,604.1z"/>
		<path class="st10" d="M517,654.3c0,0-9.5,0.7-11.6,0s-11.9-6.5-11.9-6.5s-6.3-2.3-13.6-4.7c-8.1-2.7-17.4-5.6-20.4-5.7l-0.9-0.4
			l1.4-10.2l17.4-8.6c0,0,2.3-1,5.1-2.4l5.8,3.9c0,0,13.5,9.3,17.6,9.6c3.6,0.3,12.3,1.8,14.7,2.1l0,0c0.2,0,0.4,0,0.6,0
			C521.7,631.2,517,654.3,517,654.3z"/>
		<path class="st10" d="M515.6,632.6c-13.6,3.7-32.5,9.6-32.5,9.6l-3.2,0.9l-3.6,1c-5.5-1.8-11.1-3.5-14.7-4.3
			c-0.9-0.2-1.8-0.4-2.8-0.5l-0.5-0.3c-3-1.4-17.2-8-25-9.3c-8-1.6-15.7-4.2-22.9-7.8c4.7-1.9,10,1.4,10,1.4
			c1.1,0.7,2.4,1.3,3.7,1.7l0,0c8.6,3.3,28.8,8.8,34.7,10.6l1.2-8.8l17.4-8.6c0,0,1.2-0.6,3-1.4l7.2,4.8c0,0,13.6,9.3,17.7,9.6
			C507.6,631.4,512.1,632.1,515.6,632.6z"/>
		<path class="st9" d="M414.2,571.3c0,0,39.3,20,46.9,31.9l26.5,17.8c0,0,13.5,9.3,17.6,9.6s14.8,2.3,15.3,2.1s-4.2,23-4.2,23
			s-9.5,0.7-11.6,0s-11.9-6.5-11.9-6.5s-28.3-10.1-34-10.4c0,0-16.8-8.1-25.6-9.6s-34.2-9.3-38.9-22.6c0,0-5.7-7.3-9.1-10.1
			S370.6,552,414.2,571.3z"/>
		<path class="st5" d="M562.3,661.3c-0.7-0.1-1.1-0.2-1.1-0.2c-8.8-4.5-32.2-1.8-35.8-2.4s-11.3-1.1-11.3-1.1s-4-21.4-1.4-22.1
			c1.6-0.5,3.1-1.4,4.2-2.6c4.2-2.6,27.8-3.4,30.8-3.5c1,0,2-0.3,2.9-0.8l0,0c0.3-0.2,0.6-0.5,0.7-0.8c5.6-3.5,17.4-2.3,17.4-2.3
			s16.1,2.2,16.9,21.5C586.3,663.8,567.2,662,562.3,661.3z"/>
		<path class="st10" d="M562.3,661.3c15.5-4.3,13.6-14.6,13.6-14.6c-4.2-20.6-24.9-18.1-25.4-18.1c0.3-0.2,0.6-0.5,0.7-0.8
			c5.6-3.5,17.4-2.3,17.4-2.3s16.1,2.2,16.9,21.5C586.3,663.8,567.2,662,562.3,661.3z"/>
		<path class="st10" d="M546.3,470l-21,9.6c0-0.7,1.4-1.3,1.3-2c-1.8-18.2,19.8-13,19.8-13C546.6,466.4,546.5,468.2,546.3,470z"/>
		<polygon class="st1" points="537.7,449.6 540.6,449.1 553.9,464.9 522.8,480.2 521.2,465.4 528.5,456.8 		"/>
		<path class="st10" d="M437.5,485l-0.2,0.5l-18.8-14c0.1-2.7,0.2-4.6,0.2-4.6l18.6,17.3C437.3,484.2,437.4,484.4,437.5,485z"/>
		<path class="st1" d="M433.1,449.6h-5.5c-3.5,2.5-6.3,5.9-8.1,9.7c-2.8,6.1-6.3,6.7-6.3,6.7l24.3,18.1l4.6-10.4L433.1,449.6z"/>
		<path class="st10" d="M451.8,377c-1,2.1-1.6,4.3-1.8,6.6c-0.2,2.3,0.9,4.5,2.9,5.8c1,0.5,2,0.8,3.1,0.8c5.3,0.5,10.6-1,15.8-1.9
			c6.4-1,13.3-1,19.2,1.7c3.3,1.5,6.1,3.9,9.1,6s6.1,4.1,9.7,4.9s7.6-0.1,10-2.8c2.1-2.3,2.6-5.7,2.5-8.8
			c-0.4-8.5-4.1-16.5-10.4-22.3c-6.3-5.7-14.1-9.4-22.4-10.7c-6.6-1.4-13.6,0-19.1,3.9c-5.5,3.4-10.3,7.9-14.1,13.1
			c-1.1,1.6-2.3,3.2-3.7,4.5c-1.4,1.4-3.3,2.1-5.3,2"/>
		<path class="st5" d="M451.8,375.7c-1,2.1-1.6,4.3-1.8,6.6c-0.2,2.3,0.9,4.5,2.9,5.8c1,0.5,2,0.8,3.1,0.8c5.3,0.5,10.6-1,15.8-1.9
			c6.4-1,13.3-1.1,19.2,1.7c3.3,1.5,6.1,3.9,9.1,6s6.1,4.1,9.7,4.9s7.6-0.1,10-2.8c2.1-2.3,2.6-5.7,2.5-8.8
			c-0.4-8.5-4.1-16.5-10.4-22.3c-6.3-5.7-14.1-9.4-22.4-10.7c-6.6-1.4-13.6,0-19.1,3.8c-5.5,3.4-10.3,7.8-14.1,13.1
			c-1.1,1.6-2.3,3.2-3.7,4.5c-1.4,1.4-3.3,2.1-5.3,2"/>
		<circle class="st11" cx="422.2" cy="631.1" r="0.7"/>
		<circle class="st11" cx="419.4" cy="651.7" r="0.7"/>
		<circle class="st11" cx="430.6" cy="631.8" r="0.7"/>
		<circle class="st11" cx="426.2" cy="651.7" r="0.7"/>
		<circle class="st11" cx="426.2" cy="631.8" r="0.7"/>
		<circle class="st11" cx="422.2" cy="651.7" r="0.7"/>
		<circle class="st11" cx="530.2" cy="633.2" r="0.7"/>
		<circle class="st11" cx="542.8" cy="633.9" r="0.7"/>
		<circle class="st11" cx="555.4" cy="633.9" r="0.7"/>
		<circle class="st11" cx="563.9" cy="654.5" r="0.7"/>
		<circle class="st11" cx="536.8" cy="633.9" r="0.7"/>
		<circle class="st11" cx="549.2" cy="633.9" r="0.7"/>
		<circle class="st11" cx="560.8" cy="634.6" r="0.7"/>
		<circle class="st11" cx="552.9" cy="655.2" r="0.7"/>
		<circle class="st11" cx="558.7" cy="655.2" r="0.7"/>
		<path class="st10" d="M524,634.6c0,0,8.8,10.6,1.8,20.6"/>
		<path class="st10" d="M448.3,636.5c0,0-6.3,7.9-1.4,14.5"/>
		<path class="st10" d="M472.3,469c0,0,11,8.6,9.6,12.5C481.8,481.5,480,475.8,472.3,469z"/>
		<path class="st10" d="M493.8,469c0,0-11,8.6-9.5,12.5C484.2,481.5,486.1,475.8,493.8,469z"/>
		<path class="st12" d="M520.9,513"/>
		<path class="st1" d="M521,512.8c-0.1,0.1-0.1,0.2-0.1,0.2c-0.4-0.2-0.8-0.6-1-1.1c-2.9-5.8,1.3-30.5,1.3-30.5l2.9,1.8l0,0l0.8,0.5
			C529.8,497.3,522.1,511,521,512.8z"/>
		<path class="st10" d="M478.8,509.7c0,0-4.7,7.6-7.7,7.6C471.1,517.3,478.3,511.6,478.8,509.7z"/>
		<path class="st10" d="M488.1,509.7c0,0,4.7,7.6,7.7,7.6C495.8,517.3,488.7,511.6,488.1,509.7z"/>
		<g class="st6">
			<path d="M450.1,376.2c-0.3,0.2-0.7,0.4-1,0.5l-2.8,1.7c1.1,0.1,2.3-0.1,3.3-0.6C449.7,377.3,449.9,376.8,450.1,376.2z"/>
			<path d="M450.8,375.7l-0.7,0.4l-0.1,0.2c0.2-0.1,0.5-0.3,0.7-0.4L450.8,375.7z"/>
			<path d="M521.3,387.9c0.1,2.7-0.8,5.4-2.5,7.5c-2.4,2.7-6.5,3.5-10,2.8s-6.7-2.7-9.7-4.9s-5.8-4.5-9.1-6
				c-5.9-2.8-12.8-2.8-19.2-1.7c-5.3,0.9-10.5,2.4-15.8,1.9c-1.1-0.1-2.1-0.3-3.1-0.8c-1.7-1.1-2.8-3-2.8-5c0,0.1,0,0.3,0,0.4
				c-0.2,2.3,0.9,4.5,2.9,5.8c1,0.5,2,0.8,3.1,0.8c5.3,0.5,10.6-1,15.8-1.9c6.4-1,13.3-1.1,19.2,1.7c3.3,1.5,6.1,3.9,9.1,6
				s6.1,4.1,9.7,4.9s7.6-0.1,10-2.8C520.9,394.4,521.4,391.1,521.3,387.9L521.3,387.9z"/>
		</g>
	</g>
	<path class="st13" d="M382.1,335.4c0,42.7-34.7,77.4-77.4,77.4s-77.4-34.7-77.4-77.4s34.7-77.4,77.4-77.4S382.1,292.6,382.1,335.4
		L382.1,335.4z"/>
	<path d="M316.2,347.9v-61.8c0-1.8-2.3-3.3-5.1-3.3h-12.7c-2.8,0-5.1,1.5-5.1,3.3v61.8c0,1.8,2.3,3.3,5.1,3.3h12.7
		C313.9,351.2,316.2,349.7,316.2,347.9z"/>
	<circle cx="304.7" cy="377.5" r="11.5"/>
</g>
</svg>
