<?xml version="1.0" standalone="no"?>
<!DOCTYPE svg PUBLIC "-//W3C//DTD SVG 20010904//EN"
 "http://www.w3.org/TR/2001/REC-SVG-20010904/DTD/svg10.dtd">
<svg version="1.0" xmlns="http://www.w3.org/2000/svg"
 width="700.000000pt" height="700.000000pt" viewBox="0 0 700.000000 700.000000"
 preserveAspectRatio="xMidYMid meet">
<metadata>
Created by potrace 1.11, written by Peter Selinger 2001-2013
</metadata>
<g transform="translate(0.000000,700.000000) scale(0.100000,-0.100000)"
fill="#000000" stroke="none">
<path d="M1960 6389 c-85 -13 -105 -17 -155 -34 -287 -99 -491 -355 -550 -690
-2 -16 -10 -57 -16 -90 -6 -33 -13 -69 -14 -80 -6 -40 -35 -200 -40 -215 -2
-8 -6 -31 -9 -50 -3 -19 -14 -84 -25 -145 -11 -60 -23 -123 -25 -140 -3 -16
-8 -43 -11 -60 -11 -59 -37 -202 -55 -300 -11 -55 -26 -140 -34 -190 -9 -49
-18 -101 -21 -115 -3 -14 -8 -38 -10 -55 -6 -34 -66 -362 -70 -385 -19 -100
-36 -193 -40 -225 -4 -22 -8 -47 -10 -55 -2 -8 -7 -31 -10 -50 -5 -32 -18
-104 -31 -170 -3 -14 -25 -137 -50 -275 -24 -137 -51 -284 -58 -325 -8 -41
-17 -93 -21 -115 -4 -22 -9 -51 -12 -65 -2 -14 -20 -110 -39 -215 -19 -104
-37 -205 -40 -224 -6 -37 -9 -54 -24 -126 -10 -50 -14 -75 -30 -173 -5 -29
-11 -56 -14 -60 -3 -5 -24 -9 -48 -10 -178 -7 -335 -108 -416 -267 -52 -104
-56 -145 -57 -525 l0 -355 3475 0 3475 0 -3 315 c-1 173 -5 335 -8 360 -3 25
-7 56 -9 70 -10 76 -72 193 -137 261 -79 83 -192 136 -300 142 -32 2 -60 6
-63 8 -5 5 -20 80 -31 149 -3 19 -12 67 -19 105 -8 39 -16 86 -19 105 -8 50
-16 93 -21 110 -2 8 -7 38 -11 65 -3 28 -8 52 -9 55 -2 3 -6 26 -10 50 -3 25
-8 52 -10 60 -3 8 -11 53 -20 100 -8 47 -17 96 -19 110 -3 14 -21 117 -41 230
-20 113 -38 207 -40 210 -2 3 -6 30 -10 60 -4 30 -8 57 -10 60 -2 3 -6 30 -10
60 -4 30 -9 58 -11 62 -3 4 -7 20 -9 35 -3 24 -17 104 -40 228 -3 17 -10 55
-15 85 -6 30 -12 66 -15 80 -3 14 -14 75 -25 135 -10 61 -28 160 -39 220 -18
100 -46 253 -56 315 -3 14 -7 36 -10 50 -3 14 -12 63 -20 110 -9 47 -24 132
-35 190 -10 58 -26 146 -35 195 -9 50 -18 101 -21 115 -8 40 -24 130 -34 190
-6 30 -12 66 -15 80 -3 14 -8 39 -10 55 -14 79 -26 142 -30 165 -3 14 -8 43
-11 65 -4 22 -17 78 -30 124 -78 268 -262 472 -506 560 -128 46 -79 45 -1683
46 -837 0 -1541 -3 -1565 -6z"/>
</g>
</svg>
